# AST/ASF file generated using VICON BodyLanguage
# -----------------------------------------------
:version 1.10
:name VICON
:units
  mass 1.0
  length 0.45
  angle deg
:documentation
   .ast/.asf automatically generated from VICON data using
   VICON BodyBuilder and BodyLanguage model FoxedUp or BRILLIANT.MOD
:root
   order TX TY TZ RX RY RZ
   axis XYZ
   position 0 0 0  
   orientation 0 0 0 
:bonedata
  begin
     id 1 
     name lhipjoint
     direction 0.650112 -0.723553 0.232005 
     length 2.45805 
     axis 0 0 0  XYZ
  end
  begin
     id 2 
     name lfemur
     direction 0.34202 -0.939693 0  
     length 7.00073  
     axis 0 0 20  XYZ
    dof rx ry rz
    limits (-160.0 20.0)
           (-70.0 70.0)
           (-60.0 70.0)
  end
  begin
     id 3 
     name ltibia
     direction 0.34202 -0.939693 0   
     length 7.8748   
     axis 0 0 20   XYZ
    dof rx
    limits (-10.0 170.0)
  end
  begin
     id 4 
     name lfoot
     direction 0.0542825 -0.14914 0.987325   
     length 1.75978   
     axis -90 7.62852e-016 20   XYZ
    dof rx rz
    limits (-45.0 90.0)
           (-70.0 20.0)
  end
  begin
     id 5 
     name ltoes
     direction 1.53509e-011 -4.21906e-011 1   
     length 0.893912   
     axis -90 7.62852e-016 20   XYZ
    dof rx
    limits (-90.0 20.0)
  end
  begin
     id 6 
     name rhipjoint
     direction -0.637897 -0.733345 0.235145   
     length 2.42522  
     axis 0 0 0  XYZ 
  end
  begin
     id 7 
     name rfemur
     direction -0.34202 -0.939693 0   
     length 7.02549   
     axis 0 0 -20   XYZ
    dof rx ry rz
    limits (-160.0 20.0)
           (-70.0 70.0)
           (-70.0 60.0)
  end
  begin
     id 8 
     name rtibia
     direction -0.34202 -0.939693 0   
     length 7.71512   
     axis 0 0 -20   XYZ
    dof rx
    limits (-10.0 170.0)
 end
 begin
     id 9 
     name rfoot
     direction -0.0822618 -0.226012 0.970645   
     length 1.90014  
     axis -90 -7.62852e-016 -20   XYZ
    dof rx rz
    limits (-45.0 90.0)
           (-20.0 70.0)
  end
  begin
     id 10 
     name rtoes
     direction -1.53542e-011 -4.21872e-011 1   
     length 0.957341   
     axis -90 -7.62852e-016 -20   XYZ
    dof rx
    limits (-90.0 20.0)
  end
  begin
     id 11 
     name lowerback
     direction -0.0022947 0.999774 -0.0211557   
     length 1.89909   
     axis 0 0 0   XYZ
    dof rx ry rz
    limits (-20.0 45.0)
           (-30.0 30.0)
           (-30.0 30.0)
  end
  begin
     id 12 
     name upperback
     direction 0.0107737 0.998635 0.0511027   
     length 1.8853   
     axis 0 0 0   XYZ
    dof rx ry rz
    limits (-20.0 45.0)
           (-30.0 30.0)
           (-30.0 30.0)
  end
  begin
     id 13 
     name thorax
     direction 0.011824 0.998136 0.0598754   
     length 1.88911   
     axis 0 0 0   XYZ
    dof rx ry rz
    limits (-20.0 45.0)
           (-30.0 30.0)
           (-30.0 30.0)
  end
  begin
     id 14 
     name lowerneck
     direction -0.0685355 0.990319 0.120714   
     length 1.91222   
     axis 0 0 0   XYZ
    dof rx ry rz
    limits (-20.0 45.0)
           (-30.0 30.0)
           (-30.0 30.0)
  end
  begin
     id 15 
     name upperneck
     direction 0.0886204 0.955665 -0.280805   
     length 1.92526   
     axis 0 0 0   XYZ
    dof rx ry rz
    limits (-20.0 45.0)
           (-30.0 30.0)
           (-30.0 30.0)
  end
  begin
     id 16
     name head
     direction 0.0233423 0.993502 -0.111393  
     length 1.96056  
     axis 0 0 0   XYZ
    dof rx ry rz
    limits (-20.0 45.0)
           (-30.0 30.0)
           (-30.0 30.0)
  end
  begin
     id 17 
     name lclavicle
     direction 0.941873 0.32922 0.0670041  
     length 3.31705  
     axis 0 0 0   XYZ
    dof ry rz
    limits (-20.0 10.0)
           (0.0 20.0)
  end
  begin
     id 18 
     name lhumerus
     direction 1 -4.4898e-011 3.38707e-028   
     length 5.29277   
     axis 180 -30 -90   XYZ
    dof rx ry rz
    limits (-60.0 90.0)
           (-90.0 90.0)
           (-90.0 90.0)
  end
  begin
     id 19
     name lradius
     direction 1 -4.48952e-011 1.63213e-028   
     length 2.85226   
     axis 180 -30 -90   XYZ
    dof rx
    limits (-10.0 170.0)
  end
  begin
     id 20
     name lwrist
     direction 1 -4.49001e-011 1.27856e-027   
     length 1.42613   
     axis -1.61767e-015 90 90   XYZ
    dof ry
    limits (-180.0 0.0)
 end
  begin
     id 21 
     name lhand
     direction 1 -4.48976e-011 2.55931e-027   
     length 0.602097   
     axis -1.63363e-015 90 90   XYZ
    dof rx rz
    limits (-90.0 90.0)
           (-45.0 45.0)
  end
  begin
     id 22 
     name lfingers
     direction 1 -4.48986e-011 5.11684e-027   
     length 0.485426   
     axis -3.26723e-015 90 90   XYZ
    dof rx
    limits (0.0 90.0)
  end
  begin
     id 23
     name lthumb
     direction 0.707107 -6.34915e-011 0.707107   
     length 0.696978   
     axis -90 45 -2.25915e-014   XYZ
    dof rx rz
    limits (-45.0 45.0)
           (-45.0 45.0)
  end
  begin
     id 24 
     name rclavicle
     direction -0.939974 0.327078 0.0973096   
     length 3.10337  
     axis 0 0 0   XYZ 
    dof ry rz
    limits (-10.0 20.0)
           (-20.0 0.0)
  end
  begin
     id 25 
     name rhumerus
     direction -1 -4.48975e-011 1.83745e-027  
     length 5.13304   
     axis 180 30 90   XYZ
    dof rx ry rz
    limits (-90.0 60.0)
           (-90.0 90.0)
           (-90.0 90.0)
  end
  begin
     id 26 
     name rradius
     direction -1 -4.48977e-011 7.1775e-029   
     length 2.74305   
     axis 180 30 90   XYZ
    dof rx
    limits (-10.0 170.0)
  end
  begin
     id 27 
     name rwrist
     direction -1 -4.48977e-011 1.27963e-027   
     length 1.37152   
     axis -1.61767e-015 -90 -90   XYZ
    dof ry
    limits (-180.0 0.0)
  end
  begin
     id 28
     name rhand
     direction -1 -4.4888e-011 2.56782e-027   
     length 0.767976   
     axis -1.63363e-015 -90 -90   XYZ
    dof rx rz
    limits (-90.0 90.0)
           (-45.0 45.0)
  end
  begin
     id 29
     name rfingers
     direction -1 -4.48947e-011 5.12384e-027   
     length 0.619162   
     axis -3.26723e-015 -90 -90   XYZ
    dof rx
    limits (0.0 90.0)
  end
  begin
     id 30
     name rthumb
     direction -0.707107 -6.34857e-011 0.707107   
     length 0.888997   
     axis -90 -45 2.25915e-014   XYZ
    dof rx rz
    limits (-45.0 45.0)
           (-45.0 45.0)
  end
:hierarchy
  begin
    root lhipjoint rhipjoint lowerback
    lhipjoint lfemur
    lfemur ltibia
    ltibia lfoot
    lfoot ltoes
    rhipjoint rfemur
    rfemur rtibia
    rtibia rfoot
    rfoot rtoes
    lowerback upperback
    upperback thorax
    thorax lowerneck lclavicle rclavicle
    lowerneck upperneck
    upperneck head
    lclavicle lhumerus
    lhumerus lradius
    lradius lwrist
    lwrist lhand lthumb
    lhand lfingers
    rclavicle rhumerus
    rhumerus rradius
    rradius rwrist
    rwrist rhand rthumb
    rhand rfingers
  end

#!OML:ASF F:\VICON\USERDATA\INSTALL\rory3\rory3.ASF
:FULLY-SPECIFIED
:DEGREES
308
root 0.470861 17.1343 0.240981 5.18534 25.7251 2.1184
lowerback -3.5704 0.544717 -0.444289
upperback -6.86333 0.85396 1.65647
thorax -5.13256 0.523025 1.95508
lowerneck -7.8537 -9.82083 -18.226
upperneck 23.1122 -14.6084 15.6916
head 11.3426 -6.82433 6.84557
rclavicle -1.05356e-014 3.97569e-015
rhumerus -30.0087 8.04018 -94.9613
rradius 130.597
rwrist 34.4201
rhand 42.3505 7.97391
rfingers 7.12502
rthumb 64.3127 -0.307257
lclavicle -1.05356e-014 3.97569e-015
lhumerus -15.8277 -19.467 102.348
lradius 118.808
lwrist -15.5881
lhand 37.9031 45.0488
lfingers 7.12502
lthumb 60.6354 58.1443
rfemur -3.17486 -5.03991 18.3608
rtibia 22.3244
rfoot -21.3346 -22.9404
rtoes -9.75226
lfemur -14.6886 -22.4283 -19.1445
ltibia 26.9392
lfoot -15.6582 -6.67446
ltoes -11.8138
309
root 0.469619 17.1326 0.241775 5.20647 25.6597 2.19502
lowerback -3.5634 0.553627 -0.49806
upperback -6.86031 0.863192 1.59622
thorax -5.13338 0.52837 1.92249
lowerneck -7.79372 -9.82537 -18.2429
upperneck 22.9942 -14.6372 15.8019
head 11.3035 -6.83275 6.88465
rclavicle -2.98177e-015 -1.43125e-014
rhumerus -30.0239 8.17444 -95.0842
rradius 130.623
rwrist 34.5435
rhand 42.3538 7.54547
rfingers 7.12502
rthumb 64.3153 -0.731673
lclavicle -2.98177e-015 -1.43125e-014
lhumerus -15.9287 -19.5381 102.33
lradius 118.823
lwrist -15.5996
lhand 37.8264 45.0548
lfingers 7.12502
lthumb 60.5702 58.2222
rfemur -3.21748 -5.06583 18.2705
rtibia 22.4201
rfoot -21.4838 -22.8559
rtoes -9.87225
lfemur -14.6684 -22.3716 -19.2391
ltibia 26.9626
lfoot -15.695 -6.56631
ltoes -12.7339
310
root 0.468036 17.1337 0.241995 5.17224 25.603 2.22891
lowerback -3.52377 0.548809 -0.540036
upperback -6.84859 0.855374 1.5727
thorax -5.14334 0.525638 1.9213
lowerneck -7.7449 -9.82203 -18.2452
upperneck 22.9162 -14.6416 15.8435
head 11.2691 -6.8343 6.89949
rclavicle 1.96797e-014 7.95139e-015
rhumerus -29.9476 8.16438 -95.0692
rradius 130.533
rwrist 34.5152
rhand 42.12 7.7476
rfingers 7.12502
rthumb 64.1275 -0.818008
lclavicle 1.96797e-014 7.95139e-015
lhumerus -15.9797 -19.5539 102.316
lradius 118.787
lwrist -15.6606
lhand 37.836 45.0562
lfingers 7.12502
lthumb 60.5783 58.2147
rfemur -3.2198 -5.07373 18.23
rtibia 22.5094
rfoot -21.5448 -22.7984
rtoes -10.1766
lfemur -14.6142 -22.3412 -19.2901
ltibia 26.9935
lfoot -15.7337 -6.53487
ltoes -12.8912
311
root 0.466862 17.1331 0.241935 5.07508 25.5465 2.18303
lowerback -3.45543 0.532908 -0.519993
upperback -6.82685 0.833997 1.58734
thorax -5.15815 0.514033 1.92489
lowerneck -7.75818 -9.81197 -18.2651
upperneck 22.9055 -14.6359 15.9003
head 11.2735 -6.82799 6.92552
rclavicle -1.88845e-014 -2.94201e-014
rhumerus -29.8487 8.16133 -95.0018
rradius 130.456
rwrist 34.3812
rhand 41.9888 7.93947
rfingers 7.12502
rthumb 64.0219 -0.786128
lclavicle -1.88845e-014 -2.94201e-014
lhumerus -16.0081 -19.5391 102.322
lradius 118.758
lwrist -15.7191
lhand 37.8306 45.0432
lfingers 7.12502
lthumb 60.5738 58.2067
rfemur -3.19083 -5.07842 18.2633
rtibia 22.6013
rfoot -21.5771 -22.721
rtoes -9.86323
lfemur -14.5274 -22.2849 -19.274
ltibia 27.0152
lfoot -15.7203 -6.60795
ltoes -12.6092
312
root 0.464868 17.1292 0.24264 4.99956 25.4737 2.15709
lowerback -3.43131 0.521574 -0.528882
upperback -6.7842 0.817436 1.58547
thorax -5.12606 0.505303 1.92796
lowerneck -7.80664 -9.81513 -18.2406
upperneck 22.8672 -14.6451 15.9469
head 11.2727 -6.82401 6.93481
rclavicle -1.23246e-014 1.51076e-014
rhumerus -29.74 8.19571 -95.0235
rradius 130.396
rwrist 34.3184
rhand 41.9836 7.957
rfingers 7.12502
rthumb 64.0177 -0.774931
lclavicle -1.23246e-014 1.51076e-014
lhumerus -16.0109 -19.5541 102.288
lradius 118.721
lwrist -15.6993
lhand 37.8585 45.0806
lfingers 7.12502
lthumb 60.5974 58.2181
rfemur -3.1629 -5.02247 18.2874
rtibia 22.6624
rfoot -21.5655 -22.7258
rtoes -9.55646
lfemur -14.4732 -22.2324 -19.2783
ltibia 27.0676
lfoot -15.7333 -6.64409
ltoes -12.2478
313
root 0.463445 17.1269 0.24487 4.94292 25.3616 2.16973
lowerback -3.43155 0.535048 -0.602276
upperback -6.74376 0.834781 1.59849
thorax -5.08528 0.517198 1.98251
lowerneck -7.7966 -9.81678 -18.1973
upperneck 22.8033 -14.6381 15.9084
head 11.2377 -6.8216 6.91106
rclavicle 1.59028e-014 1.59028e-015
rhumerus -29.6945 8.21824 -95.0365
rradius 130.318
rwrist 34.3565
rhand 41.9359 8.00386
rfingers 7.12502
rthumb 63.9792 -0.785873
lclavicle 1.59028e-014 1.59028e-015
lhumerus -16.0143 -19.5696 102.277
lradius 118.655
lwrist -15.6795
lhand 37.7544 44.9435
lfingers 7.12502
lthumb 60.509 58.1781
rfemur -3.12391 -4.96451 18.2657
rtibia 22.7011
rfoot -21.5869 -22.6904
rtoes -9.54577
lfemur -14.4233 -22.1759 -19.3234
ltibia 27.1462
lfoot -15.7675 -6.61907
ltoes -11.692
314
root 0.462708 17.1259 0.24621 4.81758 25.2352 2.07022
lowerback -3.38481 0.549439 -0.563784
upperback -6.73719 0.855455 1.64221
thorax -5.1059 0.526821 2.00566
lowerneck -7.66664 -9.78232 -18.1399
upperneck 22.6964 -14.5969 15.8794
head 11.1548 -6.80777 6.89803
rclavicle 5.08889e-014 4.77083e-015
rhumerus -29.7135 8.33186 -95.0509
rradius 130.275
rwrist 34.3771
rhand 42.0152 7.84627
rfingers 7.12502
rthumb 64.0431 -0.847282
lclavicle 5.08889e-014 4.77083e-015
lhumerus -16.1007 -19.5854 102.281
lradius 118.55
lwrist -15.6658
lhand 37.5574 44.7385
lfingers 7.12502
lthumb 60.3414 58.1553
rfemur -3.08504 -4.90785 18.3483
rtibia 22.76
rfoot -21.5996 -22.6159
rtoes -9.78011
lfemur -14.3299 -22.1573 -19.2658
ltibia 27.2112
lfoot -15.8648 -6.47186
ltoes -12.2829
315
root 0.462192 17.1238 0.248302 4.71916 25.1181 1.99879
lowerback -3.348 0.569364 -0.501691
upperback -6.73831 0.881723 1.63706
thorax -5.12781 0.536666 1.96481
lowerneck -7.56104 -9.74775 -18.0601
upperneck 22.5676 -14.5735 15.9284
head 11.0776 -6.79208 6.90733
rclavicle -3.37934e-014 -1.03368e-014
rhumerus -29.731 8.3973 -95.1001
rradius 130.236
rwrist 34.4333
rhand 42.1528 7.72085
rfingers 7.12502
rthumb 64.154 -0.804486
lclavicle -3.37934e-014 -1.03368e-014
lhumerus -16.1842 -19.6764 102.239
lradius 118.497
lwrist -15.6927
lhand 37.4181 44.6266
lfingers 7.12502
lthumb 60.2226 58.171
rfemur -3.04295 -4.87658 18.3949
rtibia 22.8058
rfoot -21.5679 -22.533
rtoes -9.81388
lfemur -14.2547 -22.0802 -19.2316
ltibia 27.2772
lfoot -15.9556 -6.39454
ltoes -12.6601
316
root 0.463057 17.1206 0.249997 4.70067 25.0301 2.03444
lowerback -3.37955 0.58491 -0.391077
upperback -6.70791 0.895765 1.50379
thorax -5.07346 0.533341 1.76465
lowerneck -7.57651 -9.74344 -17.7868
upperneck 22.4372 -14.5904 15.9134
head 11.0095 -6.77826 6.84701
rclavicle 1.98785e-014 -2.3059e-014
rhumerus -29.7071 8.37297 -95.3392
rradius 130.226
rwrist 34.5365
rhand 42.2222 7.61792
rfingers 7.12502
rthumb 64.2097 -0.8221
lclavicle 1.98785e-014 -2.3059e-014
lhumerus -16.1593 -19.8854 102.038
lradius 118.461
lwrist -15.6927
lhand 37.4228 44.7234
lfingers 7.12502
lthumb 60.2266 58.2636
rfemur -3.02269 -4.87243 18.3305
rtibia 22.8306
rfoot -21.5046 -22.4856
rtoes -9.98718
lfemur -14.2223 -21.9829 -19.3074
ltibia 27.3422
lfoot -16.0652 -6.30304
ltoes -13.2095
